HIERARCHY
ROOT Hips
{
	OFFSET 0.000000 0.000000 0.000000
	CHANNELS 6 Xposition Yposition Zposition Zrotation Yrotation Xrotation 
	JOINT LHipJoint
	{
		OFFSET 0.000000 0.000000 0.000000
		CHANNELS 3 Zrotation Yrotation Xrotation
		JOINT LeftUpLeg
		{
			OFFSET 1.363060 -1.794630 0.839290
			CHANNELS 3 Zrotation Yrotation Xrotation
			JOINT LeftLeg
			{
				OFFSET 2.448110 -6.726130 0.000000
				CHANNELS 3 Zrotation Yrotation Xrotation
				JOINT LeftFoot
				{
					OFFSET 2.562200 -7.039590 0.000000
					CHANNELS 3 Zrotation Yrotation Xrotation
					JOINT LeftToeBase
					{
						OFFSET 0.157640 -0.433110 2.322550
						CHANNELS 3 Zrotation Yrotation Xrotation
						End Site
						{
							OFFSET 0.000000 0.000000 0.000000
						}
					}
				}
			}
		}
	}
	JOINT RHipJoint
	{
		OFFSET 0.000000 0.000000 0.000000
		CHANNELS 3 Zrotation Yrotation Xrotation
		JOINT RightUpLeg
		{
			OFFSET -1.305520 -1.794630 0.839290
			CHANNELS 3 Zrotation Yrotation Xrotation
			JOINT RightLeg
			{
				OFFSET -2.542530 -6.985550 0.000000
				CHANNELS 3 Zrotation Yrotation Xrotation
				JOINT RightFoot
				{
					OFFSET -2.568260 -7.056230 0.000000
					CHANNELS 3 Zrotation Yrotation Xrotation
					JOINT RightToeBase
					{
						OFFSET -0.164730 -0.452590 2.363150
						CHANNELS 3 Zrotation Yrotation Xrotation
						End Site
						{
							OFFSET 0.000000 0.000000 0.000000
						}
					}
				}
			}
		}
	}
	JOINT LowerBack
	{
		OFFSET 0.000000 0.000000 0.000000
		CHANNELS 3 Zrotation Yrotation Xrotation
		JOINT Spine
		{
			OFFSET 0.028270 2.035590 -0.193380
			CHANNELS 3 Zrotation Yrotation Xrotation
			JOINT Spine1
			{
				OFFSET 0.056720 2.048850 -0.042750
				CHANNELS 3 Zrotation Yrotation Xrotation
				JOINT Neck
				{
					OFFSET 0.000000 0.000000 0.000000
					CHANNELS 3 Zrotation Yrotation Xrotation
					JOINT Neck1
					{
						OFFSET -0.054170 1.746240 0.172020
						CHANNELS 3 Zrotation Yrotation Xrotation
						JOINT Head
						{
							OFFSET 0.104070 1.761360 -0.123970
							CHANNELS 3 Zrotation Yrotation Xrotation
							End Site
							{
								OFFSET 0.000000 0.000000 0.000000
							}
						}
					}
				}
				JOINT LeftShoulder
				{
					OFFSET 0.000000 0.000000 0.000000
					CHANNELS 3 Zrotation Yrotation Xrotation
					JOINT LeftArm
					{
						OFFSET 3.362410 1.200890 -0.311210
						CHANNELS 3 Zrotation Yrotation Xrotation
						JOINT LeftForeArm
						{
							OFFSET 4.983000 -0.000000 -0.000000
							CHANNELS 3 Zrotation Yrotation Xrotation
							JOINT LeftHand
							{
								OFFSET 3.483560 -0.000000 -0.000000
								CHANNELS 3 Zrotation Yrotation Xrotation
								JOINT LeftFingerBase
								{
									OFFSET 0.000000 0.000000 0.000000
									CHANNELS 3 Zrotation Yrotation Xrotation
									JOINT LeftHandIndex1
									{
										OFFSET 0.715260 -0.000000 -0.000000
										CHANNELS 3 Zrotation Yrotation Xrotation
										End Site
										{
											OFFSET 0.000000 0.000000 0.000000
										}
									}
								}
								JOINT LThumb
								{
									OFFSET 0.000000 0.000000 0.000000
									CHANNELS 3 Zrotation Yrotation Xrotation
									End Site
									{
										OFFSET 0.000000 0.000000 0.000000
									}
								}
							}
						}
					}
				}
				JOINT RightShoulder
				{
					OFFSET 0.000000 0.000000 0.000000
					CHANNELS 3 Zrotation Yrotation Xrotation
					JOINT RightArm
					{
						OFFSET -3.136600 1.374050 -0.404650
						CHANNELS 3 Zrotation Yrotation Xrotation
						JOINT RightForeArm
						{
							OFFSET -5.241900 -0.000000 -0.000000
							CHANNELS 3 Zrotation Yrotation Xrotation
							JOINT RightHand
							{
								OFFSET -3.444170 -0.000000 -0.000000
								CHANNELS 3 Zrotation Yrotation Xrotation
								JOINT RightFingerBase
								{
									OFFSET 0.000000 0.000000 0.000000
									CHANNELS 3 Zrotation Yrotation Xrotation
									JOINT RightHandIndex1
									{
										OFFSET -0.622530 -0.000000 -0.000000
										CHANNELS 3 Zrotation Yrotation Xrotation
										End Site
										{
											OFFSET 0.000000 0.000000 0.000000
										}
									}
								}
								JOINT RThumb
								{
									OFFSET 0.000000 0.000000 0.000000
									CHANNELS 3 Zrotation Yrotation Xrotation
									End Site
									{
										OFFSET 0.000000 0.000000 0.000000
									}
								}
							}
						}
					}
				}
			}
		}
	}
}
MOTION
Frames: 4
Frame Time: 0.033333
1.368723 17.145440 -3.641012 -1.591056 -3.635748 11.919177 -17.523137 7.383102 7.360778 0.869017 5.691290 -0.463187 -3.595656 -7.277615 19.471019 -0.050177 4.822857 22.414180 1.332547 0.124451 -55.522208 11.131829 0.782967 2.348761 7.831076 4.636389 -33.598937 4.703892 2.045624 8.164345 0.190235 0.765653 8.964671 0.383718 -0.064574 -37.932278 4.703856 -7.697202 -4.533787 0.072245 -5.267635 -5.144997 -5.777555 -5.523917 1.969292 8.666454 -15.429679 -6.906000 -2.727721 -0.240951 0.085654 -0.047313 0.073118 -0.013359 -0.940787 2.552504 1.845093 -58.511000 -11.146027 17.019085 -4.807463 -65.557408 2.351263 5.608451 -3.395408 -0.190542 -0.242822 0.374279 -0.011868 -0.095629 -0.015828 -0.061773 -0.025404 0.075603 -0.000077 12.973552 -13.861638 -1.632079 48.734044 -3.314990 -13.538425 2.460372 46.904350 0.568342 -2.879262 5.927941 -0.142060 0.205640 0.027946 -0.007149 0.086971 0.011041 -0.077676 0.034561 0.094857 0.036586 
1.273432 17.246949 -2.887594 -2.622091 -4.205291 10.765699 -16.780448 6.063253 6.337352 0.990324 5.873839 -1.027967 -3.819668 -5.833947 27.356226 -0.056817 9.745493 33.868494 1.912994 0.158335 -53.271664 10.545216 0.239021 3.757838 9.980883 5.251802 -32.236373 4.551153 1.393308 10.184123 0.201942 0.938991 10.380994 0.212510 -0.029390 -34.321104 5.604821 -7.007058 -3.662256 -0.135351 -5.850761 -5.075602 -6.167856 -4.838164 2.111270 9.685294 -14.574597 -6.563438 -2.800819 -0.266135 0.067002 -0.047274 0.077324 -0.008545 -2.252777 3.525665 2.507270 -60.282241 -9.629999 15.210248 -3.986873 -61.118955 1.632183 5.433696 -3.170249 -0.160291 -0.255223 0.339437 -0.010504 -0.103577 -0.010805 -0.054229 -0.026840 0.075944 -0.006491 14.942117 -12.390778 -1.182287 48.286392 -1.424577 -12.631425 2.905159 45.656021 0.802694 -3.121314 6.195825 -0.174208 0.169842 0.055585 0.008245 0.090431 0.022556 -0.083405 0.040568 0.094824 0.037103 
1.146430 17.362811 -2.206506 -3.427668 -4.060929 10.169574 -16.284491 4.898079 4.080497 1.243330 6.079862 -2.822105 -2.452598 -2.171378 35.730116 -0.264960 14.708212 38.770517 2.344930 0.109346 -48.457430 10.433688 -0.299601 4.796121 11.308957 5.143303 -31.323985 4.810542 0.479153 11.936054 -0.070872 0.903707 11.248915 0.239674 -0.032022 -31.268142 5.691232 -6.988572 -3.367471 -0.250741 -4.718355 -4.493423 -6.877164 -4.769550 1.908364 10.804369 -13.708825 -6.597751 -3.021270 -0.304672 0.083364 -0.045374 0.074164 -0.007103 -3.068722 4.068517 2.978029 -62.000314 -8.164394 13.202309 -2.640954 -55.573257 0.551406 5.434300 -2.484966 -0.110387 -0.231995 0.325555 -0.015871 -0.109502 -0.009904 -0.047915 -0.030550 0.075197 -0.011000 17.392628 -10.341260 -0.472141 49.120929 -0.314540 -11.121406 3.098780 44.298524 0.621345 -2.974702 6.090912 -0.158877 0.122486 0.036874 0.019211 0.088512 0.024314 -0.091491 0.047374 0.089833 0.037528 
1.000030 17.474012 -1.601857 -4.418314 -3.750352 9.683103 -15.688929 3.963102 3.200399 1.649989 6.577676 -7.089076 -0.273334 1.449944 43.043773 -0.481575 19.047543 38.598313 2.624783 0.014807 -42.701663 10.288424 -0.809115 5.697353 13.168606 5.034609 -29.841444 4.761372 0.614656 12.831263 -0.274484 1.304532 9.924232 0.445037 -0.081517 -28.014881 5.660076 -6.145298 -2.029590 -0.526043 -4.783914 -4.285300 -7.283430 -4.301675 1.821816 12.146234 -12.663195 -7.096477 -3.166522 -0.329780 -0.021342 -0.039268 0.069242 0.005413 -3.107320 5.275973 3.067256 -63.772090 -7.602884 11.097136 -2.190575 -48.966323 0.314727 5.530516 -1.669184 -0.074836 -0.237393 0.338595 -0.021728 -0.114075 -0.006825 -0.036550 -0.029948 0.072075 -0.011768 19.214894 -8.072552 -0.210461 50.372139 1.135695 -8.497013 3.063463 42.902296 0.620983 -2.552770 6.205420 -0.140676 0.085619 0.068515 0.029857 0.088359 0.028491 -0.098116 0.053946 0.081461 0.035234 
